<svg width="16" height="16" viewBox="0 0 16 16" fill="none" xmlns="http://www.w3.org/2000/svg">
<path d="M12.4389 9.74012C12.2447 9.92837 12.1554 10.2006 12.1997 10.4676L12.8664 14.1576C12.9227 14.4704 12.7907 14.7869 12.5289 14.9676C12.2724 15.1551 11.9312 15.1776 11.6514 15.0276L8.32966 13.2951C8.21416 13.2336 8.08591 13.2006 7.95466 13.1969H7.75141C7.68091 13.2074 7.61191 13.2299 7.54891 13.2644L4.22641 15.0051C4.06216 15.0876 3.87616 15.1169 3.69391 15.0876C3.24991 15.0036 2.95366 14.5806 3.02641 14.1344L3.69391 10.4444C3.73816 10.1751 3.64891 9.90137 3.45466 9.71012L0.746413 7.08512C0.519913 6.86537 0.441163 6.53537 0.544663 6.23762C0.645163 5.94062 0.901663 5.72387 1.21141 5.67512L4.93891 5.13437C5.22241 5.10512 5.47141 4.93262 5.59891 4.67762L7.24141 1.31012C7.28041 1.23512 7.33066 1.16612 7.39141 1.10762L7.45891 1.05512C7.49416 1.01612 7.53466 0.983872 7.57966 0.957622L7.66141 0.927622L7.78891 0.875122H8.10466C8.38666 0.904372 8.63491 1.07312 8.76466 1.32512L10.4289 4.67762C10.5489 4.92287 10.7822 5.09312 11.0514 5.13437L14.7789 5.67512C15.0939 5.72012 15.3572 5.93762 15.4614 6.23762C15.5597 6.53837 15.4749 6.86837 15.2439 7.08512L12.4389 9.74012Z" fill="#FF9900"/>
</svg>
